<svg xmlns="http://www.w3.org/2000/svg" width="24" height="24" viewBox="0 0 24 24" fill="currentColor" focusable="false" role="img" aria-hidden="true"><g><circle cx="10.75" cy="14.75" r="0.75"></circle><path d="M19.27,9,14.16,6a.75.75,0,0,0-1,.27.74.74,0,0,0,.27,1l5.11,3a2,2,0,0,1,0,3.48l-11,6.48a2,2,0,0,1-2,0,2,2,0,0,1-1-1.74v-13a2,2,0,0,1,1-1.74,2,2,0,0,1,2,0L10,5.25V12a.75.75,0,0,0,1.5,0V4.82a.76.76,0,0,0-.37-.65L8.26,2.49a3.44,3.44,0,0,0-3.49,0A3.49,3.49,0,0,0,3,5.51v13a3.49,3.49,0,0,0,1.77,3.05,3.44,3.44,0,0,0,3.49,0l11-6.48a3.52,3.52,0,0,0,0-6.06Z"></path></g></svg>