<svg xmlns="http://www.w3.org/2000/svg" width="88" height="88" viewBox="0 0 24 24" fill="currentColor" focusable="false" role="img" aria-hidden="true"><path d="M13.3,7H6V5.5h7.3Zm.93,13.49c-.2,0-.41,0-.61,0a1.12,1.12,0,0,1-.32,0H6A1.5,1.5,0,0,1,4.5,19V5A1.5,1.5,0,0,1,6,3.5h7.3A1.5,1.5,0,0,1,14.8,5V7.14h.52a6.37,6.37,0,0,1,1,.08V5a3,3,0,0,0-3-3H6A3,3,0,0,0,3,5V19a3,3,0,0,0,3,3h7.3a3,3,0,0,0,2.6-1.53l-.58,0ZM6,19h4a6.79,6.79,0,0,1-1.38-1.5H6Zm0-3H7.89a6.29,6.29,0,0,1-.34-1.5H6Zm1.94-4.5H6V13H7.57A6.33,6.33,0,0,1,7.94,11.5Zm2.25-3H6V10H8.73A6.5,6.5,0,0,1,10.19,8.5ZM22,18.83l-1.07,1.06L18.74,17.7A5.19,5.19,0,0,1,15.32,19H14.23a4.73,4.73,0,0,1-.93-.09h0a3.92,3.92,0,0,1-.49-.13,2.64,2.64,0,0,1-.4-.12,3.25,3.25,0,0,1-.43-.18l-.42-.23-.34-.2a5.64,5.64,0,0,1-.65-.54,5.1,5.1,0,0,1,.17-7.5h0a4.83,4.83,0,0,1,1-.71L12,9.17a4,4,0,0,1,.48-.2c.12-.05.25-.08.38-.12a3.43,3.43,0,0,1,.46-.11h0a4.73,4.73,0,0,1,.93-.1h1.09a5.2,5.2,0,0,1,5.22,5.18,5.1,5.1,0,0,1-.81,2.75Zm-2.95-5a3.7,3.7,0,0,0-3.72-3.68H14.23a3.68,3.68,0,1,0,0,7.35h1.09A3.7,3.7,0,0,0,19,13.82Z"></path></svg>