<svg xmlns="http://www.w3.org/2000/svg" xmlns:xlink="http://www.w3.org/1999/xlink" version="1.1" id="Layer_1" x="0px" y="0px" viewBox="0 0 256 256" style="enable-background:new 0 0 256 256;" xml:space="preserve">
<g>
	<path fill="white" d="M141.3,22.6c58.2,7.9,99,61.5,91.1,119.7c-6.5,47.9-44.5,85.4-92.6,91.3c-4,0-8.1,0.6-12.5,0.6   c-53.8-0.1-99.1-40.3-105.5-93.7c8.3-0.1,16.5-1.9,24.1-5.2c20.7-9.3,35-28.8,37.5-51.4c6.7-0.6,13.3-2.3,19.5-5   c22.6-9.9,37.5-31.9,38.2-56.5 M127.3,3h-3.9c-1.9,0.1-3.3,1.8-3.1,3.6c0,0.2,0.1,0.4,0.1,0.6c6.8,21.9-4,45.5-25,54.6   c-5.5,2.4-11.5,3.6-17.5,3.6c-3.3,0-6.6-0.4-9.7-1.1h-0.8c-1.7,0-3.2,1.3-3.2,3.1c0,0.2,0,0.5,0.1,0.7c5,24.2-10.6,47.9-34.8,52.8   c-2.9,0.6-5.8,0.9-8.8,0.9c-5.6,0-11.2-1.1-16.5-3.1l0,0c-0.5-0.1-1,0.3-1.1,0.9c0,0,0,0.1,0,0.1c0,2.7,0,5.5,0,8.2   c0,68.7,55.5,124.6,124.2,125c4.8,0,9.5-0.3,14.2-0.7c68.6-7.5,118.1-69.3,110.6-137.9C245.2,50.7,191.3,2.7,127.3,3z"/>
	<circle cx="127.2" cy="128.1" r="17.2" fill="white"/>
	<circle cx="166.6" cy="70.3" r="17.1" fill="white"/>
	<ellipse transform="matrix(0.1602 -0.9871 0.9871 0.1602 23.1331 308.1909)" cx="192.7" cy="140.5" rx="17.2" ry="17.2" fill="white"/> 
	<circle cx="139.4" cy="193.6" r="17.2" fill="white"/>
	<circle cx="69.3" cy="167.6" r="17.1" fill="white"/>
</g>
</svg>