<svg xmlns="http://www.w3.org/2000/svg" width="24" height="24" viewBox="0 0 24 24" fill="currentColor" focusable="false" role="img" aria-hidden="true"><path d="M17.54,4A5.32,5.32,0,0,0,12,5.42,5.31,5.31,0,0,0,6.46,4,5.34,5.34,0,0,0,3,9.34c0,3.08,2.71,5.47,5.57,8,1,.85,1.95,1.72,2.87,2.65l.59.53.53-.53c.92-.93,1.91-1.8,2.87-2.65,2.86-2.54,5.57-4.93,5.57-8A5.34,5.34,0,0,0,17.54,4Zm-3.11,12.2c-.8.71-1.63,1.44-2.43,2.22-.8-.78-1.63-1.51-2.43-2.22a30,30,0,0,1-3.75-3.71H9.26a.75.75,0,0,0,.63-.35l.85-1.29,1.56,3.34a.75.75,0,0,0,.61.43H13a.75.75,0,0,0,.61-.31l1.33-1.82h3.26A30,30,0,0,1,14.43,16.23ZM19.12,11H14.54a.76.76,0,0,0-.61.3l-.81,1.11L11.52,9a.73.73,0,0,0-.63-.43.75.75,0,0,0-.68.34L8.85,11h-4A4.19,4.19,0,0,1,4.5,9.34,3.84,3.84,0,0,1,7,5.45a3.33,3.33,0,0,1,1.16-.2,4.11,4.11,0,0,1,3.2,1.64.91.91,0,0,0,1.39,0,3.9,3.9,0,0,1,4.35-1.44A3.84,3.84,0,0,1,19.5,9.34,4.19,4.19,0,0,1,19.12,11Z"></path></svg>