<svg xmlns="http://www.w3.org/2000/svg" width="24" height="24" viewBox="0 0 24 24" fill="currentColor" focusable="false" role="img" aria-hidden="true"><path d="M17.22,17.25a2.29,2.29,0,0,0,.78-.14V19a3,3,0,0,1-3,3H8a3,3,0,0,1-3-3V5A3,3,0,0,1,8,2H15a3,3,0,0,1,3,3V6.91a2.16,2.16,0,0,0-.77-.16h0a2.14,2.14,0,0,0-.72.14V5A1.47,1.47,0,0,0,15,3.5H8A1.47,1.47,0,0,0,6.5,5V19A1.47,1.47,0,0,0,8,20.5H15A1.47,1.47,0,0,0,16.5,19v-1.9A2.47,2.47,0,0,0,17.22,17.25ZM7.93,19h7.14V17.5H7.93Zm5.17-4.5H7.93V16h6.5A5.22,5.22,0,0,1,13.1,14.5Zm-5.17-3V13h4.62a11.4,11.4,0,0,1-.19-1.5Zm5.1-3H7.93V10h4.44a1.21,1.21,0,0,1,0-.2A1.84,1.84,0,0,1,13,8.5Zm2-3H7.93V7h7.14Zm5.26,7.57a3,3,0,0,1-.13.36,3.13,3.13,0,0,1-.55.87A5.46,5.46,0,0,1,18,15.49l-.43.19a.84.84,0,0,1-.35.07.92.92,0,0,1-.36-.07l-.36-.16c-.17-.09-.36-.18-.56-.3a6.07,6.07,0,0,1-.7-.5l-.1-.08-.07-.07V14.5H15a3.16,3.16,0,0,1-.76-1.07,3,3,0,0,1-.13-.36.25.25,0,0,0,0-.07,7.33,7.33,0,0,1-.22-1.5,12.33,12.33,0,0,1,0-1.5.37.37,0,0,1,0-.11.29.29,0,0,1,.06-.19.68.68,0,0,1,.29-.22h0l.13-.06.69-.27,1.43-.62.22-.1L17,8.31a.6.6,0,0,1,.27-.06h0a.58.58,0,0,1,.26.06l.23.12.28.13c.66.3,1.61.68,2.06.86l.14.06h0a.63.63,0,0,1,.28.21.36.36,0,0,1,.07.19A10.64,10.64,0,0,1,20.33,13.07Zm-.75-2-.7-.71-.88.87-1.07,1.07-.43-.43L16,11.33l-.71.71L16.5,13.3l.43.43L18,12.66Z"></path></svg>