<svg xmlns="http://www.w3.org/2000/svg" width="24" height="24" viewBox="0 0 24 24" fill="currentColor" focusable="false" role="img" aria-hidden="true"><path d="M13.58,3.5H10.42A8.42,8.42,0,0,0,2,11.92v.16a8.42,8.42,0,0,0,8.42,8.42h3.16A8.42,8.42,0,0,0,22,12.08v-.16A8.42,8.42,0,0,0,13.58,3.5Zm.83,7.17,1.06-1.06,1.33,1.33,1.33-1.33,1.06,1.06L17.86,12l1.33,1.33-1.06,1.06L16.8,13.06l-1.33,1.33-1.06-1.06L15.74,12ZM3.5,12.08v-.16A6.92,6.92,0,0,1,10.42,5h3.22L10.36,19A6.92,6.92,0,0,1,3.5,12.08ZM7,14.5,4.89,12.39,6,11.33l1,1.05L9.77,9.61l1.06,1.06Z"></path></svg>